<?xml version="1.0" encoding="UTF-8"?>
<svg width="1200" height="630" viewBox="0 0 1200 630" xmlns="http://www.w3.org/2000/svg" role="img" aria-labelledby="title desc">
  <title id="title">DocuCast — Documentary × Podcast</title>
  <desc id="desc">An abstract illustration combining documentary film motifs and podcast elements: film strip, clapperboard, microphone, waveforms, and play button.</desc>
  <defs>
    <linearGradient id="bgGrad" x1="0" y1="0" x2="1" y2="1">
      <stop offset="0%" stop-color="#FFE3C5"/>
      <stop offset="50%" stop-color="#FFC184"/>
      <stop offset="100%" stop-color="#FFD6A8"/>
    </linearGradient>
    <linearGradient id="uiGrad" x1="0" y1="0" x2="1" y2="0">
      <stop offset="0%" stop-color="#1f2833"/>
      <stop offset="100%" stop-color="#364154"/>
    </linearGradient>
    <linearGradient id="accent" x1="0" y1="0" x2="0" y2="1">
      <stop offset="0%" stop-color="#ff7a59"/>
      <stop offset="100%" stop-color="#ff4d5a"/>
    </linearGradient>
    <filter id="shadow" x="-20%" y="-20%" width="140%" height="140%">
      <feDropShadow dx="0" dy="10" stdDeviation="14" flood-color="#1f2833" flood-opacity="0.18"/>
    </filter>
    <clipPath id="filmStripClip">
      <rect x="80" y="120" width="260" height="390" rx="20"/>
    </clipPath>
  </defs>

  <!-- Background -->
  <rect width="1200" height="630" fill="url(#bgGrad)"/>

  <!-- Soft orbs -->
  <g opacity="0.35">
    <circle cx="1040" cy="520" r="220" fill="#FFF2E6"/>
    <circle cx="240" cy="120" r="180" fill="#FFE9D7"/>
  </g>

  <!-- Film strip (documentary motif) -->
  <g filter="url(#shadow)">
    <rect x="80" y="120" width="260" height="390" rx="20" fill="url(#uiGrad)"/>
    <g clip-path="url(#filmStripClip)">
      <rect x="80" y="120" width="260" height="390" fill="#2a3442"/>
      <!-- perforations -->
      <g fill="#e6edf5">
        <!-- left perforations -->
        <rect x="92" y="135" width="16" height="28" rx="4"/>
        <rect x="92" y="185" width="16" height="28" rx="4"/>
        <rect x="92" y="235" width="16" height="28" rx="4"/>
        <rect x="92" y="285" width="16" height="28" rx="4"/>
        <rect x="92" y="335" width="16" height="28" rx="4"/>
        <rect x="92" y="385" width="16" height="28" rx="4"/>
        <rect x="92" y="435" width="16" height="28" rx="4"/>
      </g>
      <g fill="#e6edf5">
        <!-- right perforations -->
        <rect x="312" y="135" width="16" height="28" rx="4"/>
        <rect x="312" y="185" width="16" height="28" rx="4"/>
        <rect x="312" y="235" width="16" height="28" rx="4"/>
        <rect x="312" y="285" width="16" height="28" rx="4"/>
        <rect x="312" y="335" width="16" height="28" rx="4"/>
        <rect x="312" y="385" width="16" height="28" rx="4"/>
        <rect x="312" y="435" width="16" height="28" rx="4"/>
      </g>
      <!-- frames inside strip -->
      <g fill="#3a4657" stroke="#475568" stroke-width="2">
        <rect x="120" y="150" width="180" height="90" rx="8"/>
        <rect x="120" y="260" width="180" height="90" rx="8"/>
        <rect x="120" y="370" width="180" height="90" rx="8"/>
      </g>
    </g>
  </g>

  <!-- Clapperboard (documentary) -->
  <g transform="translate(380,170)" filter="url(#shadow)">
    <rect x="0" y="40" width="220" height="140" rx="10" fill="#2f3b4b" stroke="#475568" stroke-width="2"/>
    <g transform="translate(0,0)">
      <rect x="0" y="0" width="220" height="60" rx="8" fill="#3a4657"/>
      <g transform="translate(8,10)" fill="#e6edf5">
        <rect x="0" y="0" width="40" height="16" rx="3"/>
        <rect x="48" y="0" width="40" height="16" rx="3"/>
        <rect x="96" y="0" width="40" height="16" rx="3"/>
        <rect x="144" y="0" width="40" height="16" rx="3"/>
      </g>
    </g>
  </g>

  <!-- Microphone (podcast motif) -->
  <g transform="translate(860,180)" filter="url(#shadow)">
    <rect x="-40" y="220" width="80" height="16" rx="8" fill="#2f3b4b"/>
    <rect x="-12" y="140" width="24" height="90" rx="12" fill="#2f3b4b"/>
    <rect x="-60" y="0" width="120" height="160" rx="60" fill="#3a4657" stroke="#475568" stroke-width="2"/>
    <!-- grille -->
    <g stroke="#e6edf5" stroke-width="4" opacity="0.9">
      <line x1="-48" y1="30" x2="48" y2="30"/>
      <line x1="-48" y1="60" x2="48" y2="60"/>
      <line x1="-48" y1="90" x2="48" y2="90"/>
      <line x1="-48" y1="120" x2="48" y2="120"/>
    </g>
  </g>

  <!-- Waveform (podcast), connecting film and mic -->
  <g transform="translate(380,360)">
    <rect x="0" y="-2" width="420" height="4" rx="2" fill="#2f3b4b" opacity="0.4"/>
    <g fill="url(#accent)">
      <rect x="10" y="-24" width="8" height="48" rx="4"/>
      <rect x="36" y="-14" width="8" height="28" rx="4"/>
      <rect x="62" y="-32" width="8" height="64" rx="4"/>
      <rect x="88" y="-10" width="8" height="20" rx="4"/>
      <rect x="114" y="-40" width="8" height="80" rx="4"/>
      <rect x="140" y="-18" width="8" height="36" rx="4"/>
      <rect x="166" y="-30" width="8" height="60" rx="4"/>
      <rect x="192" y="-8" width="8" height="16" rx="4"/>
      <rect x="218" y="-22" width="8" height="44" rx="4"/>
      <rect x="244" y="-16" width="8" height="32" rx="4"/>
      <rect x="270" y="-28" width="8" height="56" rx="4"/>
      <rect x="296" y="-12" width="8" height="24" rx="4"/>
      <rect x="322" y="-36" width="8" height="72" rx="4"/>
      <rect x="348" y="-20" width="8" height="40" rx="4"/>
      <rect x="374" y="-26" width="8" height="52" rx="4"/>
      <rect x="400" y="-14" width="8" height="28" rx="4"/>
    </g>
  </g>

  <!-- Play button -->
  <g transform="translate(640,300)" filter="url(#shadow)">
    <circle r="46" fill="#ffffff" opacity="0.92"/>
    <circle r="52" fill="none" stroke="url(#accent)" stroke-width="3"/>
    <polygon points="-8,-18 24,0 -8,18" fill="url(#accent)"/>
  </g>

  
</svg>
