<?xml version="1.0" encoding="UTF-8"?>
<svg width="1200" height="630" viewBox="0 0 1200 630" xmlns="http://www.w3.org/2000/svg" role="img" aria-labelledby="title desc">
  <title id="title">DocuCast — Documentary × Podcast</title>
  <desc id="desc">An abstract illustration combining documentary film motifs and podcast elements: film strip, clapperboard, microphone, waveforms, and play button.</desc>
  <defs>
    <linearGradient id="bgGrad" x1="0" y1="0" x2="1" y2="1">
      <stop offset="0%" stop-color="#FFE3C5"/>
      <stop offset="50%" stop-color="#FFC184"/>
      <stop offset="100%" stop-color="#FFD6A8"/>
    </linearGradient>
    <linearGradient id="uiGrad" x1="0" y1="0" x2="1" y2="0">
      <stop offset="0%" stop-color="#1f2833"/>
      <stop offset="100%" stop-color="#364154"/>
    </linearGradient>
    <linearGradient id="accent" x1="0" y1="0" x2="0" y2="1">
      <stop offset="0%" stop-color="#ff7a59"/>
      <stop offset="100%" stop-color="#ff4d5a"/>
    </linearGradient>
    <filter id="shadow" x="-20%" y="-20%" width="140%" height="140%">
      <feDropShadow dx="0" dy="10" stdDeviation="14" flood-color="#1f2833" flood-opacity="0.18"/>
    </filter>
    <clipPath id="filmStripClip">
      <rect x="80" y="120" width="260" height="390" rx="20"/>
    </clipPath>
    <!-- Metallic gradients for silver microphone -->
    <linearGradient id="silverGrad" x1="0" y1="0" x2="0" y2="1">
      <stop offset="0%" stop-color="#f7f8fa"/>
      <stop offset="30%" stop-color="#dfe3ea"/>
      <stop offset="60%" stop-color="#c2c9d3"/>
      <stop offset="100%" stop-color="#a6afbd"/>
    </linearGradient>
    <linearGradient id="metalDark" x1="0" y1="0" x2="0" y2="1">
      <stop offset="0%" stop-color="#9aa3af"/>
      <stop offset="100%" stop-color="#5f6977"/>
    </linearGradient>
    <radialGradient id="silverSheen" cx="35%" cy="25%" r="70%">
      <stop offset="0%" stop-color="#ffffff" stop-opacity="0.9"/>
      <stop offset="35%" stop-color="#ffffff" stop-opacity="0.35"/>
      <stop offset="100%" stop-color="#ffffff" stop-opacity="0"/>
    </radialGradient>
    <!-- Glassy sheen for video preview overlay -->
    <linearGradient id="glassSheenDiag" x1="0" y1="0" x2="1" y2="1">
      <stop offset="0%" stop-color="#ffffff" stop-opacity="0.18"/>
      <stop offset="40%" stop-color="#ffffff" stop-opacity="0.05"/>
      <stop offset="100%" stop-color="#ffffff" stop-opacity="0"/>
    </linearGradient>
    
  </defs>

  <!-- Background -->
  <rect width="1200" height="630" fill="url(#bgGrad)"/>

  <!-- Soft orbs -->
  <g opacity="0.35">
    <circle cx="1040" cy="520" r="220" fill="#FFF2E6"/>
    <circle cx="240" cy="120" r="180" fill="#FFE9D7"/>
  </g>

  <!-- Modern video player card (documentary motif reimagined) -->
  <g filter="url(#shadow)">
    <!-- Outer card -->
    <rect x="80" y="120" width="300" height="390" rx="20" fill="url(#uiGrad)"/>
    <!-- Inner content area -->
    <g>
      <!-- Top app bar with status dots and REC -->
      <rect x="92" y="134" width="276" height="40" rx="10" fill="#2b3646"/>
      <g transform="translate(104,146)">
        <circle cx="0" cy="0" r="6" fill="#ff6b6b"/>
        <circle cx="18" cy="0" r="6" fill="#f7c948"/>
        <circle cx="36" cy="0" r="6" fill="#51d88a"/>
      </g>
      <!-- REC indicator -->
      <g transform="translate(320,146)">
        <circle cx="0" cy="0" r="6" fill="#ff4d5a"/>
        <text x="10" y="4" font-size="10" font-family="system-ui, -apple-system, Segoe UI, Roboto, Helvetica, Arial, sans-serif" fill="#e6edf5" opacity="0.9">REC</text>
      </g>

      <!-- Video preview area with subtle poster art -->
      <rect x="92" y="186" width="276" height="210" rx="12" fill="#324055" stroke="#475568" stroke-width="1.5"/>
      <!-- HD badge -->
      <g transform="translate(322,196)">
        <rect x="0" y="0" width="40" height="20" rx="6" fill="#2b3646" stroke="#475568" stroke-width="1"/>
        <text x="8" y="14" font-size="12" font-family="system-ui, -apple-system, Segoe UI, Roboto, Helvetica, Arial, sans-serif" fill="#e6edf5" opacity="0.9">HD</text>
      </g>
      <g opacity="0.9">
        <circle cx="180" cy="250" r="70" fill="#3a4657"/>
        <rect x="270" y="210" width="80" height="40" rx="8" fill="#3a4657"/>
        <rect x="270" y="262" width="60" height="28" rx="6" fill="#3a4657"/>
      </g>
      <!-- Captions lines -->
      <g opacity="0.85">
        <rect x="112" y="356" width="180" height="10" rx="5" fill="#ffffff" opacity="0.5"/>
        <rect x="112" y="372" width="120" height="10" rx="5" fill="#ffffff" opacity="0.35"/>
      </g>
      <!-- Glass sheen overlay across preview -->
      <path d="M92,186 L282,186 L368,272 L368,396 L92,396 Z" fill="url(#glassSheenDiag)"/>

      <!-- Centered play button on preview -->
      <g transform="translate(230,290)">
        <circle r="24" fill="#ffffff" opacity="0.9"/>
        <polygon points="-4,-10 10,0 -4,10" fill="url(#accent)"/>
      </g>

      <!-- Bottom control bar -->
      <rect x="92" y="410" width="276" height="36" rx="10" fill="#2b3646"/>
      <!-- Timeline background -->
      <rect x="132" y="428" width="200" height="4" rx="2" fill="#4a576a" opacity="0.6"/>
      <!-- Timeline progress -->
      <rect x="132" y="428" width="96" height="4" rx="2" fill="url(#accent)"/>
      <!-- Scrubber knob at progress end -->
      <circle cx="228" cy="430" r="6" fill="#ffffff" stroke="url(#accent)" stroke-width="2"/>
      <!-- Controls -->
      <g fill="#e6edf5" opacity="0.9">
        <circle cx="110" cy="428" r="6"/>
        <rect x="340" y="422" width="10" height="12" rx="2"/>
        <circle cx="356" cy="428" r="3"/>
      </g>
    </g>
  </g>

  <!-- Clapperboard (documentary) -->
  <g transform="translate(380,170)" filter="url(#shadow)">
    <rect x="0" y="40" width="220" height="140" rx="10" fill="#2f3b4b" stroke="#475568" stroke-width="2"/>
    <g transform="translate(0,0)">
      <rect x="0" y="0" width="220" height="60" rx="8" fill="#3a4657"/>
      <g transform="translate(8,10)" fill="#e6edf5">
        <rect x="0" y="0" width="40" height="16" rx="3"/>
        <rect x="48" y="0" width="40" height="16" rx="3"/>
        <rect x="96" y="0" width="40" height="16" rx="3"/>
        <rect x="144" y="0" width="40" height="16" rx="3"/>
      </g>
    </g>
  </g>

  <!-- Microphone (podcast motif) -->
  <g transform="translate(860,180)" filter="url(#shadow)">
    <!-- base and stem in darker metal gradient -->
    <rect x="-40" y="220" width="80" height="16" rx="8" fill="url(#metalDark)"/>
    <rect x="-12" y="140" width="24" height="90" rx="12" fill="url(#metalDark)"/>
    <!-- microphone body in silver gradient with subtle stroke -->
    <rect x="-60" y="0" width="120" height="160" rx="60" fill="url(#silverGrad)" stroke="#9aa3af" stroke-width="2"/>
    <!-- grille lines slightly darker to sit on silver -->
    <g stroke="#8d97a6" stroke-width="4" opacity="0.7">
      <line x1="-48" y1="30" x2="48" y2="30"/>
      <line x1="-48" y1="60" x2="48" y2="60"/>
      <line x1="-48" y1="90" x2="48" y2="90"/>
      <line x1="-48" y1="120" x2="48" y2="120"/>
    </g>
  <!-- specular sheen overlay -->
  <ellipse cx="-10" cy="52" rx="46" ry="38" fill="url(#silverSheen)" opacity="0.6"/>
  </g>

  <!-- Waveform (podcast), connecting film and mic -->
  <g transform="translate(380,360)">
    <rect x="0" y="-2" width="420" height="4" rx="2" fill="#2f3b4b" opacity="0.4"/>
    <g fill="url(#accent)">
      <rect x="10" y="-24" width="8" height="48" rx="4"/>
      <rect x="36" y="-14" width="8" height="28" rx="4"/>
      <rect x="62" y="-32" width="8" height="64" rx="4"/>
      <rect x="88" y="-10" width="8" height="20" rx="4"/>
      <rect x="114" y="-40" width="8" height="80" rx="4"/>
      <rect x="140" y="-18" width="8" height="36" rx="4"/>
      <rect x="166" y="-30" width="8" height="60" rx="4"/>
      <rect x="192" y="-8" width="8" height="16" rx="4"/>
      <rect x="218" y="-22" width="8" height="44" rx="4"/>
      <rect x="244" y="-16" width="8" height="32" rx="4"/>
      <rect x="270" y="-28" width="8" height="56" rx="4"/>
      <rect x="296" y="-12" width="8" height="24" rx="4"/>
      <rect x="322" y="-36" width="8" height="72" rx="4"/>
      <rect x="348" y="-20" width="8" height="40" rx="4"/>
      <rect x="374" y="-26" width="8" height="52" rx="4"/>
      <rect x="400" y="-14" width="8" height="28" rx="4"/>
    </g>
  </g>

  <!-- Play button -->
  <g transform="translate(640,300)" filter="url(#shadow)">
    <circle r="46" fill="#ffffff" opacity="0.92"/>
    <circle r="52" fill="none" stroke="url(#accent)" stroke-width="3"/>
    <polygon points="-8,-18 24,0 -8,18" fill="url(#accent)"/>
  </g>

  
</svg>
