<svg xmlns="http://www.w3.org/2000/svg" width="20" height="20" viewBox="0 0 32 32" fill="none">
  <circle cx="16" cy="16" r="16" fill="#25D366"/>
  <path d="M22.2 18.7c-.3-.2-1.7-.8-2-1-.3-.1-.5-.2-.7.2-.2.3-.8 1-1 1.3-.2.2-.4.2-.7.1-.3-.2-1.2-.5-2.3-1.5-.9-.8-1.4-1.7-1.6-2-.2-.3 0-.5.1-.7.1-.1.3-.4.5-.6.2-.2.2-.3.3-.5.1-.2.1-.4 0-.6-.1-.2-.7-1.7-.9-2.3-.3-.6-.5-.5-.7-.5-.2 0-.4 0-.6 0-.2 0-.6.1-.8.4-.3.3-1.1 1.1-1.1 2.6 0 1.5 1.1 3 1.2 3.2.2.2 2.1 3.3 5.1 4.5.7.3 1.3.5 1.7.6.7.2 1.4.2 1.9.1.6-.1 1.7-.7 2-1.4.3-.7.3-1.3.2-1.5-.1-.1-.3-.2-.6-.4z" fill="#fff"/>
</svg>
