<svg xmlns="http://www.w3.org/2000/svg" width="20" height="20" viewBox="0 0 32 32" fill="currentColor">
  <path d="M16 2.938c-7.364 0-13.344 5.98-13.344 13.344 0 2.355.617 4.648 1.789 6.668l-1.898 6.938 7.117-1.867c1.957 1.07 4.164 1.637 6.336 1.637 7.363 0 13.344-5.98 13.344-13.344S23.363 2.938 16 2.938zm0 24.125c-1.98 0-3.938-.504-5.668-1.453l-.406-.227-4.227 1.109 1.125-4.117-.262-.422c-1.09-1.75-1.664-3.77-1.664-5.844 0-6.012 4.895-10.906 10.906-10.906s10.906 4.895 10.906 10.906-4.895 10.906-10.906 10.906zm5.98-8.188c-.328-.164-1.938-.957-2.238-1.07-.301-.109-.523-.164-.746.164-.219.328-.855 1.07-1.051 1.293-.195.219-.383.246-.711.082-.328-.164-1.383-.51-2.637-1.625-.975-.867-1.633-1.938-1.828-2.266-.191-.328-.02-.504.145-.668.148-.148.328-.383.492-.574.164-.195.219-.328.328-.547.109-.219.055-.41-.027-.574-.082-.164-.746-1.797-1.023-2.457-.27-.648-.547-.559-.746-.57-.195-.008-.418-.01-.641-.01-.219 0-.574.082-.875.41-.301.328-1.148 1.121-1.148 2.73 0 1.609 1.176 3.164 1.34 3.383.164.219 2.32 3.547 5.625 4.832.789.34 1.406.543 1.887.695.793.252 1.516.217 2.086.131.637-.094 1.938-.793 2.211-1.559.273-.766.273-1.422.191-1.559-.082-.137-.301-.219-.629-.383z"/>
</svg>
